<?xml version="1.0" encoding="UTF-8"?>
<svg id="Capa_2" xmlns="http://www.w3.org/2000/svg" viewBox="0 0 135.9 55.53">
  <defs>
    <style>
      .cls-1 {
        font-family: Montserrat-Bold, Montserrat;
        font-size: 14px;
        font-weight: 700;
      }

      .cls-2 {
        fill: #0da5df;
      }

      .cls-3, .cls-4, .cls-5 {
        fill: #eff3f8;
      }

      .cls-6 {
        fill: #153557;
      }

      .cls-7, .cls-8 {
        fill: #0fa5df;
      }

      .cls-8 {
        letter-spacing: 0em;
      }

      .cls-4 {
        letter-spacing: 0em;
      }

      .cls-5 {
        font-family: Montserrat-Regular, Montserrat;
        font-size: 8px;
      }

      .cls-9 {
        letter-spacing: -.02em;
      }
    </style>
  </defs>
  <g id="Capa_2-2" data-name="Capa_2">
    <text class="cls-1" transform="translate(53.21 31.84)"><tspan class="cls-8" x="0" y="0">R</tspan><tspan class="cls-3" x="10.22" y="0">ati</tspan><tspan class="cls-4" x="29.16" y="0">n</tspan><tspan class="cls-3" x="38.89" y="0">g </tspan><tspan class="cls-7" x="52.65" y="0">A</tspan><tspan class="cls-3" x="63.38" y="0">pp</tspan></text>
    <text class="cls-5" transform="translate(53.58 42.23)"><tspan x="0" y="0">Somos </tspan><tspan class="cls-9" x="29.44" y="0">t</tspan><tspan x="32.54" y="0">odos</tspan></text>
    <g>
      <path class="cls-3" d="M47.14,31.27L6.06,54.98C3.37,56.54,0,54.59,0,51.48V4.05C0,.94,3.37-1.01,6.06.55l41.08,23.72c2.69,1.56,2.69,5.45,0,7Z"/>
      <g>
        <g>
          <path class="cls-2" d="M28.07,29.94c-.14.43-.25.88-.47,1.26-.93,1.66-2.34,2.89-3.87,3.95-1.34.93-2.77,1.73-4.19,2.55-.23.13-.63.17-.85.06-2.72-1.33-5.25-2.95-7.24-5.28-.56-.66-.95-1.48-1.38-2.25-.06-.11-.09-.21-.1-.3h-1.55s.01.03.02.05c.6,2.39,2.19,4.05,4,5.55,1.87,1.54,3.92,2.81,6.12,3.82.26.12.67.15.92.03,2.81-1.3,5.4-2.94,7.61-5.13,1.2-1.19,2.16-2.52,2.56-4.19.01-.04.02-.09.04-.12h-1.62Z"/>
          <path class="cls-2" d="M34.03,26.71c-1.04-.45-2.26-.11-2.84.88-.14.24-.3.38-.49.45h-6.26c-.38-1.05-.79-2.21-1.26-3.49-.67,1.53-1.27,2.89-1.88,4.25-.08,0-.15,0-.23,0-.6-2.2-1.21-4.41-1.81-6.61-.05,0-.1.01-.15.02-.7,2.52-1.39,5.04-2.09,7.57-.07,0-.15,0-.23-.01-.56-1.7-1.12-3.41-1.67-5.11h-.17c-.4,1.16-.8,2.32-1.18,3.39h-6.5c-.18-.07-.33-.2-.47-.43-.62-1.03-1.83-1.38-2.88-.89-1.05.48-1.54,1.67-1.17,2.79.37,1.08,1.46,1.72,2.65,1.46.49-.11.68.02.82.46.44,1.39,1.2,2.62,2.16,3.7,2.84,3.22,6.42,5.38,10.32,7.05.22.1.57.05.81-.05,2.79-1.17,5.38-2.69,7.72-4.62,1.97-1.62,3.68-3.46,4.56-5.92.19-.54.4-.7,1-.6,1.14.2,2.18-.55,2.47-1.64.28-1.07-.26-2.21-1.26-2.65ZM4.9,29.53c-.52,0-.77-.3-.78-.78,0-.47.31-.74.75-.76.48-.01.77.27.83.76-.06.47-.28.77-.8.77ZM30.67,30.29c-.49,2.14-1.81,3.77-3.37,5.21-2.29,2.12-4.91,3.76-7.77,5.01-.23.1-.58.15-.8.06-3.63-1.62-6.96-3.69-9.52-6.8-.87-1.05-1.52-2.23-1.79-3.59-.02-.09-.03-.17-.03-.24h4.97c.2.21.42.52.69.93.97,1.52.54.84.88,1.36.36-1,.67-1.87.98-2.75.07,0,.15,0,.22,0,.62,1.89,1.23,3.77,1.85,5.66h.15c.65-2.37,1.3-4.73,1.95-7.1.08,0,.16,0,.23,0,.5,1.79,1,3.58,1.55,5.57.74-1.68,1.4-3.2,2.07-4.72.07,0,.13,0,.2,0,.4,1.09.8,2.18,1.25,3.42.45-.79.86-1.42,1.19-2.09.05-.11.11-.21.18-.29h4.89c.04.12.05.26.03.35ZM33.15,29.53c-.56-.02-.84-.31-.82-.8.01-.49.35-.77.83-.75.45.02.75.31.74.77,0,.49-.3.76-.75.78Z"/>
        </g>
        <g>
          <path class="cls-6" d="M32.46,25.54l-.8.5-.04.03-.07.05-.1.06-.09.05s-.09.05-.13.08c-.1.06-.19.12-.24.15-.01,0-.02.01-.03.01h-.02s-.09.06-.09.06l-.02-.08h0s-.02-.09-.02-.09c0,0,0,0,0,0l-.03-.15s0,.03,0,.05l-.17-.81h0s0-.02,0-.02c-.68-2.64-2.49-4.54-4.58-6.23-1.95-1.57-4.1-2.82-6.36-3.89-.45-.21-.82-.2-1.26,0-2.9,1.36-5.6,3.02-7.91,5.26-1.7,1.64-3,3.52-3.25,6.03h0s-1.6-1.14-1.6-1.14l.19-.56h0s.49-1.44.49-1.44c.58-1.35,1.47-2.53,2.5-3.61,2.79-2.9,6.2-4.89,9.85-6.49.23-.1.58-.08.81.02,3.71,1.64,7.16,3.69,9.98,6.65,1.1,1.16,1.98,2.47,2.52,3.98l.28.9.19.62Z"/>
          <path class="cls-6" d="M30.82,26.36h0s-.02-.09-.02-.09h0s0-.05,0-.06l.03.15s0,0,0,0Z"/>
          <path class="cls-6" d="M30.82,26.36s0-.01,0-.02c0-.02,0-.05-.01-.07l.02.09Z"/>
          <path class="cls-6" d="M6.34,23.47l-.49,1.44c.12-.5.29-.98.49-1.44Z"/>
        </g>
        <path class="cls-2" d="M29.94,26.87l-.66.07c-.12.02-.23.03-.32.03l-.52.05-.11-.39-.16-.56c-.39-1.75-1.57-3.01-2.84-4.18-1.75-1.6-3.75-2.85-5.87-3.91-.22-.11-.58-.12-.79,0-2.66,1.34-5.15,2.91-7.15,5.16-.76.85-1.36,1.79-1.64,2.9h0s-.16.71-.16.71h0s-.05.2-.05.2l-.1-.03-1.37-.36c0-.07,0-.14,0-.21.14-1.4.75-2.6,1.61-3.68,1.97-2.46,4.48-4.25,7.24-5.68,2.53-1.31,1.51-1.29,4.02.02,2.75,1.44,5.29,3.2,7.23,5.69.78,1,1.36,2.08,1.56,3.35l.05.52.03.31Z"/>
      </g>
    </g>
  </g>
</svg>